<?xml version="1.0" encoding="UTF-8" standalone="no"?>
<!DOCTYPE svg PUBLIC "-//W3C//DTD SVG 1.1//EN"
 "http://www.w3.org/Graphics/SVG/1.1/DTD/svg11.dtd">
<!-- Generated by graphviz version 2.38.0 (20140413.2041)
 -->
<!-- Title: controllers_diagram Pages: 1 -->
<svg width="640pt" height="560pt"
 viewBox="0.00 0.00 639.83 559.72" xmlns="http://www.w3.org/2000/svg" xmlns:xlink="http://www.w3.org/1999/xlink">
<g id="graph0" class="graph" transform="scale(1 1) rotate(0) translate(193.829 290.114)">
<title>controllers_diagram</title>
<polygon fill="none" stroke="none" points="-193.829,269.605 -193.829,-290.114 446,-290.114 446,269.605 -193.829,269.605"/>
<!-- _diagram_info -->
<g id="node1" class="node"><title>_diagram_info</title>
<text text-anchor="start" x="236" y="164.4" font-family="Times,serif" font-size="13.00">Controllers diagram</text>
<text text-anchor="start" x="236" y="178.4" font-family="Times,serif" font-size="13.00">Date: Apr 08 2018 &#45; 13:54</text>
<text text-anchor="start" x="236" y="192.4" font-family="Times,serif" font-size="13.00">Migration version: 20180407035407</text>
<text text-anchor="start" x="236" y="206.4" font-family="Times,serif" font-size="13.00">Generated by RailRoady 1.5.3</text>
<text text-anchor="start" x="236" y="220.4" font-family="Times,serif" font-size="13.00">http://railroady.prestonlee.com</text>
</g>
<!-- CinemasController -->
<g id="node2" class="node"><title>CinemasController</title>
<path fill="none" stroke="black" d="M-177.829,-115.105C-177.829,-115.105 -81.8292,-115.105 -81.8292,-115.105 -75.8292,-115.105 -69.8292,-121.105 -69.8292,-127.105 -69.8292,-127.105 -69.8292,-271.105 -69.8292,-271.105 -69.8292,-277.105 -75.8292,-283.105 -81.8292,-283.105 -81.8292,-283.105 -177.829,-283.105 -177.829,-283.105 -183.829,-283.105 -189.829,-277.105 -189.829,-271.105 -189.829,-271.105 -189.829,-127.105 -189.829,-127.105 -189.829,-121.105 -183.829,-115.105 -177.829,-115.105"/>
<text text-anchor="middle" x="-129.829" y="-267.905" font-family="Times,serif" font-size="14.00">CinemasController</text>
<polyline fill="none" stroke="black" points="-189.829,-260.105 -69.8292,-260.105 "/>
<text text-anchor="start" x="-181.829" y="-244.905" font-family="Times,serif" font-size="14.00">create</text>
<text text-anchor="start" x="-181.829" y="-229.905" font-family="Times,serif" font-size="14.00">destroy</text>
<text text-anchor="start" x="-181.829" y="-214.905" font-family="Times,serif" font-size="14.00">index</text>
<text text-anchor="start" x="-181.829" y="-199.905" font-family="Times,serif" font-size="14.00">show</text>
<text text-anchor="start" x="-181.829" y="-184.905" font-family="Times,serif" font-size="14.00">update</text>
<polyline fill="none" stroke="black" points="-189.829,-177.105 -69.8292,-177.105 "/>
<polyline fill="none" stroke="black" points="-189.829,-153.105 -69.8292,-153.105 "/>
<text text-anchor="start" x="-181.829" y="-137.905" font-family="Times,serif" font-size="14.00">cinema_params</text>
<text text-anchor="start" x="-181.829" y="-122.905" font-family="Times,serif" font-size="14.00">set_cinema</text>
</g>
<!-- OrdersController -->
<g id="node3" class="node"><title>OrdersController</title>
<path fill="none" stroke="black" d="M82.7768,75.3841C82.7768,75.3841 167.777,75.3841 167.777,75.3841 173.777,75.3841 179.777,69.3841 179.777,63.3841 179.777,63.3841 179.777,-80.6159 179.777,-80.6159 179.777,-86.6159 173.777,-92.6159 167.777,-92.6159 167.777,-92.6159 82.7768,-92.6159 82.7768,-92.6159 76.7768,-92.6159 70.7768,-86.6159 70.7768,-80.6159 70.7768,-80.6159 70.7768,63.3841 70.7768,63.3841 70.7768,69.3841 76.7768,75.3841 82.7768,75.3841"/>
<text text-anchor="middle" x="125.277" y="-77.4159" font-family="Times,serif" font-size="14.00">OrdersController</text>
<polyline fill="none" stroke="black" points="70.7768,-69.6159 179.777,-69.6159 "/>
<text text-anchor="start" x="78.7768" y="-54.4159" font-family="Times,serif" font-size="14.00">create</text>
<text text-anchor="start" x="78.7768" y="-39.4159" font-family="Times,serif" font-size="14.00">destroy</text>
<text text-anchor="start" x="78.7768" y="-24.4159" font-family="Times,serif" font-size="14.00">index</text>
<text text-anchor="start" x="78.7768" y="-9.4159" font-family="Times,serif" font-size="14.00">show</text>
<text text-anchor="start" x="78.7768" y="5.5841" font-family="Times,serif" font-size="14.00">update</text>
<polyline fill="none" stroke="black" points="70.7768,13.3841 179.777,13.3841 "/>
<polyline fill="none" stroke="black" points="70.7768,37.3841 179.777,37.3841 "/>
<text text-anchor="start" x="78.7768" y="52.5841" font-family="Times,serif" font-size="14.00">order_params</text>
<text text-anchor="start" x="78.7768" y="67.5841" font-family="Times,serif" font-size="14.00">set_order</text>
</g>
<!-- MoviesController -->
<g id="node4" class="node"><title>MoviesController</title>
<path fill="none" stroke="black" d="M59.1839,265.105C59.1839,265.105 148.184,265.105 148.184,265.105 154.184,265.105 160.184,259.105 160.184,253.105 160.184,253.105 160.184,109.105 160.184,109.105 160.184,103.105 154.184,97.105 148.184,97.105 148.184,97.105 59.1839,97.105 59.1839,97.105 53.1839,97.105 47.1839,103.105 47.1839,109.105 47.1839,109.105 47.1839,253.105 47.1839,253.105 47.1839,259.105 53.1839,265.105 59.1839,265.105"/>
<text text-anchor="middle" x="103.684" y="112.305" font-family="Times,serif" font-size="14.00">MoviesController</text>
<polyline fill="none" stroke="black" points="47.1839,120.105 160.184,120.105 "/>
<text text-anchor="start" x="55.1839" y="135.305" font-family="Times,serif" font-size="14.00">create</text>
<text text-anchor="start" x="55.1839" y="150.305" font-family="Times,serif" font-size="14.00">destroy</text>
<text text-anchor="start" x="55.1839" y="165.305" font-family="Times,serif" font-size="14.00">index</text>
<text text-anchor="start" x="55.1839" y="180.305" font-family="Times,serif" font-size="14.00">show</text>
<text text-anchor="start" x="55.1839" y="195.305" font-family="Times,serif" font-size="14.00">update</text>
<polyline fill="none" stroke="black" points="47.1839,203.105 160.184,203.105 "/>
<polyline fill="none" stroke="black" points="47.1839,227.105 160.184,227.105 "/>
<text text-anchor="start" x="55.1839" y="242.305" font-family="Times,serif" font-size="14.00">movie_params</text>
<text text-anchor="start" x="55.1839" y="257.305" font-family="Times,serif" font-size="14.00">set_movie</text>
</g>
<!-- ApplicationController -->
<g id="node5" class="node"><title>ApplicationController</title>
<path fill="none" stroke="black" d="M-161.128,34.6916C-161.128,34.6916 -49.128,34.6916 -49.128,34.6916 -43.128,34.6916 -37.128,28.6916 -37.128,22.6916 -37.128,22.6916 -37.128,-48.3084 -37.128,-48.3084 -37.128,-54.3084 -43.128,-60.3084 -49.128,-60.3084 -49.128,-60.3084 -161.128,-60.3084 -161.128,-60.3084 -167.128,-60.3084 -173.128,-54.3084 -173.128,-48.3084 -173.128,-48.3084 -173.128,22.6916 -173.128,22.6916 -173.128,28.6916 -167.128,34.6916 -161.128,34.6916"/>
<text text-anchor="middle" x="-105.128" y="-45.1084" font-family="Times,serif" font-size="14.00">ApplicationController</text>
<polyline fill="none" stroke="black" points="-173.128,-37.3084 -37.128,-37.3084 "/>
<polyline fill="none" stroke="black" points="-173.128,-13.3084 -37.128,-13.3084 "/>
<polyline fill="none" stroke="black" points="-173.128,10.6916 -37.128,10.6916 "/>
</g>
<!-- ApplicationController&#45;&gt;CinemasController -->
<g id="edge1" class="edge"><title>ApplicationController&#45;&gt;CinemasController</title>
<path fill="none" stroke="black" d="M-111.489,-60.7844C-113.676,-77.2792 -116.194,-96.2676 -118.649,-114.786"/>
</g>
<!-- ApplicationController&#45;&gt;OrdersController -->
<g id="edge2" class="edge"><title>ApplicationController&#45;&gt;OrdersController</title>
<path fill="none" stroke="black" d="M-36.9341,-11.5675C-2.56564,-10.9421 38.5404,-10.1942 70.7727,-9.60766"/>
</g>
<!-- ApplicationController&#45;&gt;MoviesController -->
<g id="edge3" class="edge"><title>ApplicationController&#45;&gt;MoviesController</title>
<path fill="none" stroke="black" d="M-53.7794,34.8765C-23.2281,63.2481 15.5785,99.2859 47.022,128.486"/>
</g>
<!-- TicketsController -->
<g id="node6" class="node"><title>TicketsController</title>
<path fill="none" stroke="black" d="M61.3651,-117.614C61.3651,-117.614 149.365,-117.614 149.365,-117.614 155.365,-117.614 161.365,-123.614 161.365,-129.614 161.365,-129.614 161.365,-273.614 161.365,-273.614 161.365,-279.614 155.365,-285.614 149.365,-285.614 149.365,-285.614 61.3651,-285.614 61.3651,-285.614 55.3651,-285.614 49.3651,-279.614 49.3651,-273.614 49.3651,-273.614 49.3651,-129.614 49.3651,-129.614 49.3651,-123.614 55.3651,-117.614 61.3651,-117.614"/>
<text text-anchor="middle" x="105.365" y="-270.414" font-family="Times,serif" font-size="14.00">TicketsController</text>
<polyline fill="none" stroke="black" points="49.3651,-262.614 161.365,-262.614 "/>
<text text-anchor="start" x="57.3651" y="-247.414" font-family="Times,serif" font-size="14.00">create</text>
<text text-anchor="start" x="57.3651" y="-232.414" font-family="Times,serif" font-size="14.00">destroy</text>
<text text-anchor="start" x="57.3651" y="-217.414" font-family="Times,serif" font-size="14.00">index</text>
<text text-anchor="start" x="57.3651" y="-202.414" font-family="Times,serif" font-size="14.00">show</text>
<text text-anchor="start" x="57.3651" y="-187.414" font-family="Times,serif" font-size="14.00">update</text>
<polyline fill="none" stroke="black" points="49.3651,-179.614 161.365,-179.614 "/>
<polyline fill="none" stroke="black" points="49.3651,-155.614 161.365,-155.614 "/>
<text text-anchor="start" x="57.3651" y="-140.414" font-family="Times,serif" font-size="14.00">set_ticket</text>
<text text-anchor="start" x="57.3651" y="-125.414" font-family="Times,serif" font-size="14.00">ticket_params</text>
</g>
<!-- ApplicationController&#45;&gt;TicketsController -->
<g id="edge4" class="edge"><title>ApplicationController&#45;&gt;TicketsController</title>
<path fill="none" stroke="black" d="M-52.0117,-60.4519C-21.0769,-88.1995 17.8966,-123.157 49.3196,-151.343"/>
</g>
<!-- UsersController -->
<g id="node7" class="node"><title>UsersController</title>
<path fill="none" stroke="black" d="M-170.407,258.396C-170.407,258.396 -91.4071,258.396 -91.4071,258.396 -85.4071,258.396 -79.4071,252.396 -79.4071,246.396 -79.4071,246.396 -79.4071,102.396 -79.4071,102.396 -79.4071,96.3964 -85.4071,90.3964 -91.4071,90.3964 -91.4071,90.3964 -170.407,90.3964 -170.407,90.3964 -176.407,90.3964 -182.407,96.3964 -182.407,102.396 -182.407,102.396 -182.407,246.396 -182.407,246.396 -182.407,252.396 -176.407,258.396 -170.407,258.396"/>
<text text-anchor="middle" x="-130.907" y="105.596" font-family="Times,serif" font-size="14.00">UsersController</text>
<polyline fill="none" stroke="black" points="-182.407,113.396 -79.4071,113.396 "/>
<text text-anchor="start" x="-174.407" y="128.596" font-family="Times,serif" font-size="14.00">create</text>
<text text-anchor="start" x="-174.407" y="143.596" font-family="Times,serif" font-size="14.00">destroy</text>
<text text-anchor="start" x="-174.407" y="158.596" font-family="Times,serif" font-size="14.00">index</text>
<text text-anchor="start" x="-174.407" y="173.596" font-family="Times,serif" font-size="14.00">show</text>
<text text-anchor="start" x="-174.407" y="188.596" font-family="Times,serif" font-size="14.00">update</text>
<polyline fill="none" stroke="black" points="-182.407,196.396 -79.4071,196.396 "/>
<polyline fill="none" stroke="black" points="-182.407,220.396 -79.4071,220.396 "/>
<text text-anchor="start" x="-174.407" y="235.596" font-family="Times,serif" font-size="14.00">set_user</text>
<text text-anchor="start" x="-174.407" y="250.596" font-family="Times,serif" font-size="14.00">user_params</text>
</g>
<!-- ApplicationController&#45;&gt;UsersController -->
<g id="edge5" class="edge"><title>ApplicationController&#45;&gt;UsersController</title>
<path fill="none" stroke="black" d="M-111.7,34.9157C-114.027,51.8149 -116.719,71.3648 -119.338,90.3812"/>
</g>
</g>
</svg>
