<?xml version="1.0" encoding="UTF-8" standalone="no"?>
<!DOCTYPE svg PUBLIC "-//W3C//DTD SVG 1.1//EN"
 "http://www.w3.org/Graphics/SVG/1.1/DTD/svg11.dtd">
<!-- Generated by graphviz version 2.38.0 (20140413.2041)
 -->
<!-- Title: models_diagram Pages: 1 -->
<svg width="619pt" height="590pt"
 viewBox="0.00 0.00 618.84 590.00" xmlns="http://www.w3.org/2000/svg" xmlns:xlink="http://www.w3.org/1999/xlink">
<g id="graph0" class="graph" transform="scale(1 1) rotate(0) translate(4 586)">
<title>models_diagram</title>
<polygon fill="none" stroke="none" points="-4,4 -4,-586 614.842,-586 614.842,4 -4,4"/>
<!-- _diagram_info -->
<g id="node1" class="node"><title>_diagram_info</title>
<text text-anchor="start" x="8" y="-567.6" font-family="Times,serif" font-size="13.00">Models diagram</text>
<text text-anchor="start" x="8" y="-553.6" font-family="Times,serif" font-size="13.00">Date: Apr 08 2018 &#45; 13:54</text>
<text text-anchor="start" x="8" y="-539.6" font-family="Times,serif" font-size="13.00">Migration version: 20180407035407</text>
<text text-anchor="start" x="8" y="-525.6" font-family="Times,serif" font-size="13.00">Generated by RailRoady 1.5.3</text>
<text text-anchor="start" x="8" y="-511.6" font-family="Times,serif" font-size="13.00">http://railroady.prestonlee.com</text>
</g>
<!-- Movie -->
<g id="node2" class="node"><title>Movie</title>
<path fill="none" stroke="black" d="M49,-158.5C49,-158.5 269,-158.5 269,-158.5 275,-158.5 281,-164.5 281,-170.5 281,-170.5 281,-297.5 281,-297.5 281,-303.5 275,-309.5 269,-309.5 269,-309.5 49,-309.5 49,-309.5 43,-309.5 37,-303.5 37,-297.5 37,-297.5 37,-170.5 37,-170.5 37,-164.5 43,-158.5 49,-158.5"/>
<text text-anchor="middle" x="159" y="-294.3" font-family="Times,serif" font-size="14.00">Movie</text>
<polyline fill="none" stroke="black" points="37,-286.5 281,-286.5 "/>
<text text-anchor="start" x="45" y="-271.3" font-family="Times,serif" font-size="14.00">id :bigint</text>
<text text-anchor="start" x="45" y="-256.3" font-family="Times,serif" font-size="14.00">cinema_id :integer</text>
<text text-anchor="start" x="45" y="-241.3" font-family="Times,serif" font-size="14.00">name :character varying</text>
<text text-anchor="start" x="45" y="-226.3" font-family="Times,serif" font-size="14.00">showtime :timestamp without time zone</text>
<text text-anchor="start" x="45" y="-211.3" font-family="Times,serif" font-size="14.00">duration :integer</text>
<text text-anchor="start" x="45" y="-196.3" font-family="Times,serif" font-size="14.00">seats :integer</text>
<text text-anchor="start" x="45" y="-181.3" font-family="Times,serif" font-size="14.00">created_at :timestamp without time zone</text>
<text text-anchor="start" x="45" y="-166.3" font-family="Times,serif" font-size="14.00">updated_at :timestamp without time zone</text>
</g>
<!-- Ticket -->
<g id="node4" class="node"><title>Ticket</title>
<path fill="none" stroke="black" d="M199,-0.5C199,-0.5 419,-0.5 419,-0.5 425,-0.5 431,-6.5 431,-12.5 431,-12.5 431,-109.5 431,-109.5 431,-115.5 425,-121.5 419,-121.5 419,-121.5 199,-121.5 199,-121.5 193,-121.5 187,-115.5 187,-109.5 187,-109.5 187,-12.5 187,-12.5 187,-6.5 193,-0.5 199,-0.5"/>
<text text-anchor="middle" x="309" y="-106.3" font-family="Times,serif" font-size="14.00">Ticket</text>
<polyline fill="none" stroke="black" points="187,-98.5 431,-98.5 "/>
<text text-anchor="start" x="195" y="-83.3" font-family="Times,serif" font-size="14.00">id :bigint</text>
<text text-anchor="start" x="195" y="-68.3" font-family="Times,serif" font-size="14.00">movie_id :integer</text>
<text text-anchor="start" x="195" y="-53.3" font-family="Times,serif" font-size="14.00">order_id :integer</text>
<text text-anchor="start" x="195" y="-38.3" font-family="Times,serif" font-size="14.00">price :integer</text>
<text text-anchor="start" x="195" y="-23.3" font-family="Times,serif" font-size="14.00">created_at :timestamp without time zone</text>
<text text-anchor="start" x="195" y="-8.3" font-family="Times,serif" font-size="14.00">updated_at :timestamp without time zone</text>
</g>
<!-- Movie&#45;&gt;Ticket -->
<g id="edge1" class="edge"><title>Movie&#45;&gt;Ticket</title>
<path fill="none" stroke="#86dd42" d="M229.697,-152.405C236.519,-144.629 243.388,-136.798 250.078,-129.171"/>
<ellipse fill="none" stroke="#86dd42" cx="226.994" cy="-155.487" rx="4.00002" ry="4.00002"/>
<polygon fill="#86dd42" stroke="#86dd42" points="250.106,-129.139 260.083,-124.589 253.403,-125.381 256.7,-121.622 256.7,-121.622 256.7,-121.622 253.403,-125.381 253.317,-118.654 250.106,-129.139 250.106,-129.139"/>
</g>
<!-- Cinema -->
<g id="node3" class="node"><title>Cinema</title>
<path fill="none" stroke="black" d="M49,-369C49,-369 269,-369 269,-369 275,-369 281,-375 281,-381 281,-381 281,-433 281,-433 281,-439 275,-445 269,-445 269,-445 49,-445 49,-445 43,-445 37,-439 37,-433 37,-433 37,-381 37,-381 37,-375 43,-369 49,-369"/>
<text text-anchor="middle" x="159" y="-429.8" font-family="Times,serif" font-size="14.00">Cinema</text>
<polyline fill="none" stroke="black" points="37,-422 281,-422 "/>
<text text-anchor="start" x="45" y="-406.8" font-family="Times,serif" font-size="14.00">id :bigint</text>
<text text-anchor="start" x="45" y="-391.8" font-family="Times,serif" font-size="14.00">created_at :timestamp without time zone</text>
<text text-anchor="start" x="45" y="-376.8" font-family="Times,serif" font-size="14.00">updated_at :timestamp without time zone</text>
</g>
<!-- Cinema&#45;&gt;Movie -->
<g id="edge3" class="edge"><title>Cinema&#45;&gt;Movie</title>
<path fill="none" stroke="#331868" d="M159,-360.473C159,-347.904 159,-333.847 159,-319.815"/>
<ellipse fill="none" stroke="#331868" cx="159" cy="-364.896" rx="4" ry="4"/>
<polygon fill="#331868" stroke="#331868" points="159,-319.624 163.5,-309.624 159,-314.624 159,-309.624 159,-309.624 159,-309.624 159,-314.624 154.5,-309.624 159,-319.624 159,-319.624"/>
</g>
<!-- ApplicationRecord -->
<g id="node5" class="node"><title>ApplicationRecord</title>
<ellipse fill="none" stroke="black" cx="309" cy="-543" rx="77.1866" ry="18"/>
<text text-anchor="middle" x="309" y="-539.3" font-family="Times,serif" font-size="14.00">ApplicationRecord</text>
</g>
<!-- ApplicationRecord&#45;&gt;Movie -->
<g id="edge2" class="edge"><title>ApplicationRecord&#45;&gt;Movie</title>
<path fill="none" stroke="black" d="M278.221,-526.302C262.118,-518.632 241.873,-509.824 223,-504 138.787,-478.013 84.3782,-535.739 28,-468 -6.68639,-426.324 5.20293,-395.197 28,-346 34.0785,-332.882 42.5558,-320.751 52.3047,-309.703"/>
</g>
<!-- ApplicationRecord&#45;&gt;Cinema -->
<g id="edge4" class="edge"><title>ApplicationRecord&#45;&gt;Cinema</title>
<path fill="none" stroke="black" d="M290.306,-525.3C268.002,-505.375 230.041,-471.463 200.656,-445.212"/>
</g>
<!-- ApplicationRecord&#45;&gt;Ticket -->
<g id="edge5" class="edge"><title>ApplicationRecord&#45;&gt;Ticket</title>
<path fill="none" stroke="black" d="M309,-524.917C309,-460.703 309,-231.866 309,-121.877"/>
</g>
<!-- User -->
<g id="node6" class="node"><title>User</title>
<path fill="none" stroke="black" d="M349,-346.5C349,-346.5 569,-346.5 569,-346.5 575,-346.5 581,-352.5 581,-358.5 581,-358.5 581,-455.5 581,-455.5 581,-461.5 575,-467.5 569,-467.5 569,-467.5 349,-467.5 349,-467.5 343,-467.5 337,-461.5 337,-455.5 337,-455.5 337,-358.5 337,-358.5 337,-352.5 343,-346.5 349,-346.5"/>
<text text-anchor="middle" x="459" y="-452.3" font-family="Times,serif" font-size="14.00">User</text>
<polyline fill="none" stroke="black" points="337,-444.5 581,-444.5 "/>
<text text-anchor="start" x="345" y="-429.3" font-family="Times,serif" font-size="14.00">id :bigint</text>
<text text-anchor="start" x="345" y="-414.3" font-family="Times,serif" font-size="14.00">name :character varying</text>
<text text-anchor="start" x="345" y="-399.3" font-family="Times,serif" font-size="14.00">email :character varying</text>
<text text-anchor="start" x="345" y="-384.3" font-family="Times,serif" font-size="14.00">password_digest :character varying</text>
<text text-anchor="start" x="345" y="-369.3" font-family="Times,serif" font-size="14.00">created_at :timestamp without time zone</text>
<text text-anchor="start" x="345" y="-354.3" font-family="Times,serif" font-size="14.00">updated_at :timestamp without time zone</text>
</g>
<!-- ApplicationRecord&#45;&gt;User -->
<g id="edge7" class="edge"><title>ApplicationRecord&#45;&gt;User</title>
<path fill="none" stroke="black" d="M327.694,-525.3C344.03,-510.707 368.763,-488.612 392.375,-467.518"/>
</g>
<!-- Order -->
<g id="node7" class="node"><title>Order</title>
<path fill="none" stroke="black" d="M349.5,-173.5C349.5,-173.5 594.5,-173.5 594.5,-173.5 600.5,-173.5 606.5,-179.5 606.5,-185.5 606.5,-185.5 606.5,-282.5 606.5,-282.5 606.5,-288.5 600.5,-294.5 594.5,-294.5 594.5,-294.5 349.5,-294.5 349.5,-294.5 343.5,-294.5 337.5,-288.5 337.5,-282.5 337.5,-282.5 337.5,-185.5 337.5,-185.5 337.5,-179.5 343.5,-173.5 349.5,-173.5"/>
<text text-anchor="middle" x="472" y="-279.3" font-family="Times,serif" font-size="14.00">Order</text>
<polyline fill="none" stroke="black" points="337.5,-271.5 606.5,-271.5 "/>
<text text-anchor="start" x="345.5" y="-256.3" font-family="Times,serif" font-size="14.00">id :bigint</text>
<text text-anchor="start" x="345.5" y="-241.3" font-family="Times,serif" font-size="14.00">user_id :integer</text>
<text text-anchor="start" x="345.5" y="-226.3" font-family="Times,serif" font-size="14.00">credit_card :character varying</text>
<text text-anchor="start" x="345.5" y="-211.3" font-family="Times,serif" font-size="14.00">expiration_date :timestamp without time zone</text>
<text text-anchor="start" x="345.5" y="-196.3" font-family="Times,serif" font-size="14.00">created_at :timestamp without time zone</text>
<text text-anchor="start" x="345.5" y="-181.3" font-family="Times,serif" font-size="14.00">updated_at :timestamp without time zone</text>
</g>
<!-- ApplicationRecord&#45;&gt;Order -->
<g id="edge9" class="edge"><title>ApplicationRecord&#45;&gt;Order</title>
<path fill="none" stroke="black" d="M375.617,-533.82C450.188,-523.135 564.015,-501.714 590,-468 623.101,-425.054 611.513,-395.772 590,-346 581.742,-326.895 568.399,-309.561 553.6,-294.569"/>
</g>
<!-- User&#45;&gt;Order -->
<g id="edge6" class="edge"><title>User&#45;&gt;Order</title>
<path fill="none" stroke="#76f9c0" d="M464.178,-337.889C464.999,-327.084 465.85,-315.893 466.675,-305.045"/>
<ellipse fill="none" stroke="#76f9c0" cx="463.85" cy="-342.204" rx="4" ry="4"/>
<polygon fill="#76f9c0" stroke="#76f9c0" points="466.698,-304.745 471.943,-295.115 467.077,-299.759 467.456,-294.774 467.456,-294.774 467.456,-294.774 467.077,-299.759 462.969,-294.433 466.698,-304.745 466.698,-304.745"/>
</g>
<!-- Order&#45;&gt;Ticket -->
<g id="edge8" class="edge"><title>Order&#45;&gt;Ticket</title>
<path fill="none" stroke="#12faaa" d="M409.355,-167.28C397.425,-154.765 384.925,-141.652 372.955,-129.094"/>
<ellipse fill="none" stroke="#12faaa" cx="412.231" cy="-170.297" rx="4.00002" ry="4.00002"/>
<polygon fill="#12faaa" stroke="#12faaa" points="372.877,-129.012 369.235,-118.669 369.427,-125.393 365.977,-121.774 365.977,-121.774 365.977,-121.774 369.427,-125.393 362.72,-124.879 372.877,-129.012 372.877,-129.012"/>
</g>
</g>
</svg>
