<?xml version="1.0" encoding="UTF-8" standalone="no"?>
<!DOCTYPE svg PUBLIC "-//W3C//DTD SVG 1.1//EN"
 "http://www.w3.org/Graphics/SVG/1.1/DTD/svg11.dtd">
<!-- Generated by graphviz version 2.38.0 (20140413.2041)
 -->
<!-- Title: models_diagram Pages: 1 -->
<svg width="412pt" height="302pt"
 viewBox="0.00 0.00 412.09 302.00" xmlns="http://www.w3.org/2000/svg" xmlns:xlink="http://www.w3.org/1999/xlink">
<g id="graph0" class="graph" transform="scale(1 1) rotate(0) translate(4 298)">
<title>models_diagram</title>
<polygon fill="none" stroke="none" points="-4,4 -4,-298 408.092,-298 408.092,4 -4,4"/>
<!-- _diagram_info -->
<g id="node1" class="node"><title>_diagram_info</title>
<text text-anchor="start" x="8" y="-279.6" font-family="Times,serif" font-size="13.00">Models diagram</text>
<text text-anchor="start" x="8" y="-265.6" font-family="Times,serif" font-size="13.00">Date: Apr 08 2018 &#45; 13:54</text>
<text text-anchor="start" x="8" y="-251.6" font-family="Times,serif" font-size="13.00">Migration version: 20180407035407</text>
<text text-anchor="start" x="8" y="-237.6" font-family="Times,serif" font-size="13.00">Generated by RailRoady 1.5.3</text>
<text text-anchor="start" x="8" y="-223.6" font-family="Times,serif" font-size="13.00">http://railroady.prestonlee.com</text>
</g>
<!-- Movie -->
<g id="node2" class="node"><title>Movie</title>
<ellipse fill="none" stroke="black" cx="243" cy="-90" rx="34.394" ry="18"/>
<text text-anchor="middle" x="243" y="-86.3" font-family="Times,serif" font-size="14.00">Movie</text>
</g>
<!-- Ticket -->
<g id="node4" class="node"><title>Ticket</title>
<ellipse fill="none" stroke="black" cx="309" cy="-18" rx="33.2948" ry="18"/>
<text text-anchor="middle" x="309" y="-14.3" font-family="Times,serif" font-size="14.00">Ticket</text>
</g>
<!-- Movie&#45;&gt;Ticket -->
<g id="edge1" class="edge"><title>Movie&#45;&gt;Ticket</title>
<path fill="none" stroke="#aa4610" d="M263.314,-67.4545C270.928,-59.3793 279.604,-50.1771 287.336,-41.9771"/>
<ellipse fill="none" stroke="#aa4610" cx="260.392" cy="-70.5544" rx="4.00002" ry="4.00002"/>
<polygon fill="#aa4610" stroke="#aa4610" points="287.533,-41.7678 297.668,-37.5789 290.963,-38.1298 294.393,-34.4918 294.393,-34.4918 294.393,-34.4918 290.963,-38.1298 291.119,-31.4048 287.533,-41.7678 287.533,-41.7678"/>
</g>
<!-- Cinema -->
<g id="node3" class="node"><title>Cinema</title>
<ellipse fill="none" stroke="black" cx="243" cy="-162" rx="38.1938" ry="18"/>
<text text-anchor="middle" x="243" y="-158.3" font-family="Times,serif" font-size="14.00">Cinema</text>
</g>
<!-- Cinema&#45;&gt;Movie -->
<g id="edge3" class="edge"><title>Cinema&#45;&gt;Movie</title>
<path fill="none" stroke="#d79899" d="M243,-135.64C243,-130.063 243,-124.132 243,-118.476"/>
<ellipse fill="none" stroke="#d79899" cx="243" cy="-139.697" rx="4" ry="4"/>
<polygon fill="#d79899" stroke="#d79899" points="243,-118.104 247.5,-108.104 243,-113.104 243,-108.104 243,-108.104 243,-108.104 243,-113.104 238.5,-108.104 243,-118.104 243,-118.104"/>
</g>
<!-- ApplicationRecord -->
<g id="node5" class="node"><title>ApplicationRecord</title>
<ellipse fill="none" stroke="black" cx="309" cy="-255" rx="77.1866" ry="18"/>
<text text-anchor="middle" x="309" y="-251.3" font-family="Times,serif" font-size="14.00">ApplicationRecord</text>
</g>
<!-- ApplicationRecord&#45;&gt;Movie -->
<g id="edge2" class="edge"><title>ApplicationRecord&#45;&gt;Movie</title>
<path fill="none" stroke="black" d="M268.915,-239.473C243.021,-227.749 211.387,-208.469 196,-180 188.392,-165.924 190.323,-158.959 196,-144 201.76,-128.823 214.076,-115.206 224.656,-105.576"/>
</g>
<!-- ApplicationRecord&#45;&gt;Cinema -->
<g id="edge4" class="edge"><title>ApplicationRecord&#45;&gt;Cinema</title>
<path fill="none" stroke="black" d="M296.586,-236.884C284.637,-220.408 266.692,-195.666 254.914,-179.427"/>
</g>
<!-- ApplicationRecord&#45;&gt;Ticket -->
<g id="edge5" class="edge"><title>ApplicationRecord&#45;&gt;Ticket</title>
<path fill="none" stroke="black" d="M309,-236.72C309,-193.261 309,-79.7913 309,-36.3054"/>
</g>
<!-- User -->
<g id="node6" class="node"><title>User</title>
<ellipse fill="none" stroke="black" cx="364" cy="-162" rx="27.0966" ry="18"/>
<text text-anchor="middle" x="364" y="-158.3" font-family="Times,serif" font-size="14.00">User</text>
</g>
<!-- ApplicationRecord&#45;&gt;User -->
<g id="edge7" class="edge"><title>ApplicationRecord&#45;&gt;User</title>
<path fill="none" stroke="black" d="M319.345,-236.884C329.365,-220.305 344.444,-195.357 354.255,-179.123"/>
</g>
<!-- Order -->
<g id="node7" class="node"><title>Order</title>
<ellipse fill="none" stroke="black" cx="368" cy="-90" rx="31.3957" ry="18"/>
<text text-anchor="middle" x="368" y="-86.3" font-family="Times,serif" font-size="14.00">Order</text>
</g>
<!-- ApplicationRecord&#45;&gt;Order -->
<g id="edge9" class="edge"><title>ApplicationRecord&#45;&gt;Order</title>
<path fill="none" stroke="black" d="M340.125,-238.314C361.313,-225.743 387.666,-205.927 400,-180 411.85,-155.09 394.366,-124.545 380.945,-106.489"/>
</g>
<!-- User&#45;&gt;Order -->
<g id="edge6" class="edge"><title>User&#45;&gt;Order</title>
<path fill="none" stroke="#5fed98" d="M365.449,-135.64C365.768,-130.063 366.107,-124.132 366.43,-118.476"/>
<ellipse fill="none" stroke="#5fed98" cx="365.217" cy="-139.703" rx="4" ry="4"/>
<polygon fill="#5fed98" stroke="#5fed98" points="366.452,-118.088 371.515,-108.361 366.737,-113.096 367.023,-108.104 367.023,-108.104 367.023,-108.104 366.737,-113.096 362.53,-107.848 366.452,-118.088 366.452,-118.088"/>
</g>
<!-- Order&#45;&gt;Ticket -->
<g id="edge8" class="edge"><title>Order&#45;&gt;Ticket</title>
<path fill="none" stroke="#aa7ccc" d="M349.665,-67.2468C343.138,-59.5025 335.755,-50.7433 329.089,-42.8338"/>
<ellipse fill="none" stroke="#aa7ccc" cx="352.328" cy="-70.4062" rx="4.00002" ry="4.00002"/>
<polygon fill="#aa7ccc" stroke="#aa7ccc" points="328.911,-42.6235 325.907,-32.077 325.689,-38.8003 322.466,-34.9772 322.466,-34.9772 322.466,-34.9772 325.689,-38.8003 319.026,-37.8773 328.911,-42.6235 328.911,-42.6235"/>
</g>
</g>
</svg>
